#!OML:ASF I:\Actors\actors\Patient Classification 1\Patient 1\Session 1\Subject1.ASF
:FULLY-SPECIFIED
:DEGREES
640
root -0.871167 17.5126 7.45529 2.69278 2.36924 -6.39723
lowerback 3.28303 0.618122 6.85456
upperback -8.96283 1.52357 0.536312
thorax -11.3488 0.160842 -3.44893
lowerneck -11.6888 -1.27832 -0.0300653
upperneck 29.6172 -3.72286 6.16407
head 11.734 -0.909716 1.80161
rclavicle 1.58034e-014 1.55052e-014
rhumerus -58.8439 -43.2363 -42.5049
rradius 12.8583
rwrist 86.4455
rhand -24.3651 -26.1915
rfingers 7.12502
rthumb 2.12478 -1136.16
lclavicle 1.58034e-014 1.55052e-014
lhumerus -82.903 54.1825 6.36936
lradius 11.4024
lwrist -73.1271
lhand -15.3059 -12.7627
lfingers 7.12502
lthumb 10.8697 16.936
rfemur 2.72341 22.0817 28.1166
rtibia 3.42343
rfoot -12.4692 -23.6992
rtoes 3.0436
lfemur 7.96651 -33.6802 -15.448
ltibia -2.53075
lfoot -10.7193 40.5568
ltoes 1.05635
641
root -0.864331 17.511 7.45145 2.7311 2.20248 -6.35152
lowerback 3.28651 0.638975 6.77979
upperback -8.96375 1.5413 0.49934
thorax -11.349 0.173796 -3.44958
lowerneck -11.6525 -1.33037 0.0281683
upperneck 29.4931 -3.83283 6.25305
head 11.684 -0.946189 1.80745
rclavicle -6.55989e-015 4.37326e-015
rhumerus -58.7023 -43.1751 -42.729
rradius 12.8661
rwrist 86.2739
rhand -24.4216 -26.296
rfingers 7.12502
rthumb 2.07019 -1136.27
lclavicle -6.55989e-015 4.37326e-015
lhumerus -83.1651 54.26 6.04549
lradius 11.3619
lwrist -73.5068
lhand -15.3326 -12.7927
lfingers 7.12502
lthumb 10.8439 16.9074
rfemur 2.69695 22.1144 28.0049
rtibia 3.34164
rfoot -12.376 -23.6273
rtoes 2.72685
lfemur 7.98881 -33.7003 -15.563
ltibia -2.54261
lfoot -10.8131 40.7463
ltoes 1.20952
642
root -0.857884 17.5112 7.44717 2.6976 2.03248 -6.34187
lowerback 3.37394 0.664095 6.7608
upperback -8.93994 1.576 0.46429
thorax -11.3702 0.189765 -3.48311
lowerneck -11.6753 -1.3943 0.0826234
upperneck 29.4051 -3.94925 6.29773
head 11.6598 -0.98959 1.79707
rclavicle 1.07344e-014 1.63003e-014
rhumerus -59.0608 -43.5211 -42.2295
rradius 12.8572
rwrist 86.7015
rhand -24.527 -26.3022
rfingers 7.12502
rthumb 1.96842 -1136.27
lclavicle 1.07344e-014 1.63003e-014
lhumerus -98.8798 55.2639 -13.2577
lradius 11.0965
lwrist -84.7968
lhand -15.8017 -13.551
lfingers 7.12502
lthumb 10.3914 16.1722
rfemur 2.74105 22.1258 27.9663
rtibia 3.30163
rfoot -12.3646 -23.495
rtoes 2.57925
lfemur 8.09577 -33.6313 -15.6564
ltibia -2.59276
lfoot -10.7256 40.8738
ltoes 1.09517
643
root -0.850218 17.5119 7.44095 2.64236 1.86158 -6.37655
lowerback 3.49047 0.667557 6.79424
upperback -8.89464 1.59103 0.464741
thorax -11.3875 0.194097 -3.50547
lowerneck -11.6374 -1.45956 0.0768899
upperneck 29.1252 -4.01357 6.26364
head 11.544 -1.03233 1.77117
rclavicle 2.01766e-014 1.15295e-014
rhumerus -59.0056 -43.584 -42.2286
rradius 12.843
rwrist 86.7469
rhand -24.5204 -26.2337
rfingers 7.12502
rthumb 1.97475 -1136.2
lclavicle 2.01766e-014 1.15295e-014
lhumerus -82.3343 54.1834 7.04175
lradius 11.311
lwrist -73.1995
lhand -15.2607 -12.6483
lfingers 7.12502
lthumb 10.9133 17.0481
rfemur 2.78656 22.0899 27.9757
rtibia 3.30106
rfoot -12.3479 -23.3142
rtoes 2.79569
lfemur 8.20389 -33.5163 -15.6922
ltibia -2.62772
lfoot -10.592 40.9348
ltoes 0.90156
644
root -0.841746 17.5116 7.43457 2.64903 1.68379 -6.45003
lowerback 3.52302 0.685874 6.87757
upperback -8.84273 1.62464 0.478182
thorax -11.3438 0.206252 -3.54196
lowerneck -11.6212 -1.50756 0.0659655
upperneck 28.8717 -4.05767 6.2436
head 11.4433 -1.06349 1.75488
rclavicle -6.4605e-015 1.98785e-015
rhumerus -58.519 -43.2923 -42.8356
rradius 12.8508
rwrist 86.3034
rhand -24.4838 -26.1049
rfingers 7.12502
rthumb 2.01015 -1136.08
lclavicle -6.4605e-015 1.98785e-015
lhumerus -82.3016 54.2582 7.10915
lradius 11.3372
lwrist -73.3038
lhand -14.8974 -12.9323
lfingers 7.12502
lthumb 11.2637 16.7453
rfemur 2.72254 22.0879 27.9987
rtibia 3.33352
rfoot -12.2747 -23.1864
rtoes 3.01015
lfemur 8.245 -33.5275 -15.6783
ltibia -2.62768
lfoot -10.7468 41.108
ltoes 1.27509
645
root -0.833603 17.5106 7.42986 2.68246 1.54345 -6.47256
lowerback 3.48522 0.717944 6.91041
upperback -8.78435 1.66306 0.463124
thorax -11.2483 0.225897 -3.58003
lowerneck -11.5851 -1.5595 0.138652
upperneck 28.6313 -4.12327 6.20917
head 11.3434 -1.09697 1.71655
rclavicle 3.68746e-014 -1.51076e-014
rhumerus -58.3178 -43.2084 -43.0919
rradius 12.8604
rwrist 86.1743
rhand -24.4386 -26.1084
rfingers 7.12502
rthumb 2.05376 -1136.08
lclavicle 3.68746e-014 -1.51076e-014
lhumerus -82.6148 54.457 6.6877
lradius 11.3274
lwrist -73.7933
lhand -14.4364 -13.1558
lfingers 7.12502
lthumb 11.7083 16.497
rfemur 2.6277 22.1725 27.9695
rtibia 3.38373
rfoot -12.2309 -23.1689
rtoes 3.07126
lfemur 8.25461 -33.5572 -15.7006
ltibia -2.64376
lfoot -10.9414 41.2614
ltoes 1.85381
646
root -0.827156 17.5098 7.42545 2.68463 1.47827 -6.43493
lowerback 3.44517 0.719304 6.84151
upperback -8.72623 1.65045 0.447588
thorax -11.1581 0.229611 -3.55533
lowerneck -11.4493 -1.60526 0.285712
upperneck 28.3267 -4.17598 6.12683
head 11.1961 -1.12627 1.64925
rclavicle 2.21645e-014 -1.78906e-014
rhumerus -58.6443 -43.507 -42.5977
rradius 12.8373
rwrist 86.7598
rhand -24.3827 -26.2172
rfingers 7.12502
rthumb 2.10779 -1136.19
lclavicle 2.21645e-014 -1.78906e-014
lhumerus -82.7236 54.5672 6.50806
lradius 11.2919
lwrist -74.1091
lhand -14.0881 -13.2848
lfingers 7.12502
lthumb 12.0442 16.3486
rfemur 2.57954 22.212 27.8953
rtibia 3.44801
rfoot -12.2258 -23.148
rtoes 2.86905
lfemur 8.22032 -33.4207 -15.7235
ltibia -2.64998
lfoot -10.835 41.1899
ltoes 1.77686
647
root -0.821558 17.5095 7.42026 2.64297 1.43291 -6.40009
lowerback 3.4434 0.717675 6.77047
upperback -8.64643 1.63563 0.4284
thorax -11.0666 0.232643 -3.53384
lowerneck -11.284 -1.66489 0.327577
upperneck 27.9691 -4.25394 6.16568
head 11.0296 -1.16601 1.64124
rclavicle -1.21259e-014 1.94809e-014
rhumerus -59.112 -43.8929 -41.9141
rradius 12.7801
rwrist 87.5732
rhand -24.4378 -26.3239
rfingers 7.12502
rthumb 2.05453 -1136.29
lclavicle -1.21259e-014 1.94809e-014
lhumerus -83.2603 54.6933 5.77982
lradius 11.2008
lwrist -74.9496
lhand -14.2005 -13.6376
lfingers 7.12502
lthumb 11.9358 16.0021
rfemur 2.58956 22.1956 27.8436
rtibia 3.5015
rfoot -12.2239 -23.0881
rtoes 2.69545
lfemur 8.17997 -33.1339 -15.711
ltibia -2.64232
lfoot -10.505 40.9717
ltoes 1.12418
648
root -0.817076 17.5088 7.41516 2.56183 1.37671 -6.35697
lowerback 3.4583 0.737809 6.71021
upperback -8.47576 1.64583 0.38305
thorax -10.8777 0.250928 -3.54925
lowerneck -11.3601 -1.74493 0.343763
upperneck 27.6349 -4.37395 6.24254
head 10.925 -1.21793 1.64527
rclavicle -8.74653e-015 3.57812e-015
rhumerus -59.1868 -44.1544 -41.7468
rradius 12.7152
rwrist 87.971
rhand -24.555 -26.4364
rfingers 7.12502
rthumb 1.94134 -1136.41
lclavicle -8.74653e-015 3.57812e-015
lhumerus -85.1761 55.1089 3.32861
lradius 11.0299
lwrist -77.1792
lhand -14.8871 -14.2061
lfingers 7.12502
lthumb 11.2737 15.471
rfemur 2.66667 22.2395 27.8163
rtibia 3.5154
rfoot -12.2228 -23.0925
rtoes 2.78486
lfemur 8.19668 -32.8332 -15.7413
ltibia -2.62384
lfoot -10.2386 40.746
ltoes 0.535175
649
root -0.814144 17.5075 7.40849 2.42485 1.32934 -6.31699
lowerback 3.52197 0.733713 6.63665
upperback -8.22241 1.62403 0.355586
thorax -10.6292 0.259541 -3.53422
lowerneck -11.7026 -1.82551 0.358272
upperneck 27.3572 -4.4923 6.27129
head 10.8942 -1.26835 1.63134
rclavicle 1.03368e-014 -2.10712e-014
rhumerus -58.8204 -44.2587 -42.1125
rradius 12.6677
rwrist 87.9605
rhand -24.6419 -26.479
rfingers 7.12502
rthumb 1.85747 -1136.45
lclavicle 1.03368e-014 -2.10712e-014
lhumerus -86.3768 55.5018 1.79096
lradius 10.8328
lwrist -78.8698
lhand -15.3802 -14.3082
lfingers 7.12502
lthumb 10.798 15.3943
rfemur 2.79643 22.25 27.8154
rtibia 3.51985
rfoot -12.1488 -23.0921
rtoes 2.6324
lfemur 8.28448 -32.5744 -15.8169
ltibia -2.5844
lfoot -10.2538 40.5526
ltoes 0.494113
650
root -0.811627 17.5051 7.39648 2.19334 1.27684 -6.34781
lowerback 3.76813 0.694767 6.59329
upperback -7.94822 1.57799 0.39358
thorax -10.4731 0.253873 -3.46666
lowerneck -11.9919 -1.90906 0.209966
upperneck 26.9383 -4.60999 6.4623
head 10.8077 -1.3211 1.70247
rclavicle 3.57812e-015 1.66979e-014
rhumerus -58.6701 -44.5275 -42.0874
rradius 12.5685
rwrist 88.4374
rhand -24.8268 -26.3526
rfingers 7.12502
rthumb 1.67888 -1136.33
lclavicle 3.57812e-015 1.66979e-014
lhumerus -85.2984 55.5858 3.10378
lradius 10.6251
lwrist -78.9227
lhand -15.3431 -13.9066
lfingers 7.12502
lthumb 10.8338 15.794
rfemur 2.95241 22.1487 27.9024
rtibia 3.61919
rfoot -12.0957 -22.9651
rtoes 2.6085
lfemur 8.43933 -32.2568 -15.8359
ltibia -2.52518
lfoot -10.2469 40.2998
ltoes 0.506793
651
root -0.808955 17.5019 7.37817 1.89828 1.26136 -6.42876
lowerback 4.17574 0.631125 6.54712
upperback -7.67672 1.51524 0.471168
thorax -10.4211 0.238137 -3.35643
lowerneck -12.1264 -1.98323 0.126572
upperneck 26.3459 -4.71376 6.66747
head 10.6258 -1.36741 1.76755
rclavicle -9.24349e-015 9.14409e-015
rhumerus -58.8344 -44.962 -41.6081
rradius 12.4031
rwrist 89.4704
rhand -24.9813 -26.341
rfingers 7.12502
rthumb 1.52963 -1136.32
lclavicle -9.24349e-015 9.14409e-015
lhumerus -84.1389 55.5368 4.60985
lradius 10.458
lwrist -79.1339
lhand -15.2397 -13.7693
lfingers 7.12502
lthumb 10.9335 15.9261
rfemur 3.09751 21.9746 28.0457
rtibia 3.82778
rfoot -12.1678 -22.7736
rtoes 3.0447
lfemur 8.5651 -31.8816 -15.7812
ltibia -2.3998
lfoot -10.0856 39.9526
ltoes 0.333093
652
root -0.805759 17.4982 7.35664 1.65451 1.30478 -6.48024
lowerback 4.59063 0.548905 6.46376
upperback -7.45161 1.42493 0.532245
thorax -10.4289 0.207961 -3.23967
lowerneck -12.2764 -2.06288 0.273188
upperneck 25.9011 -4.81961 6.61697
head 10.4911 -1.41775 1.70307
rclavicle 1.32192e-014 -2.14687e-014
rhumerus -58.9503 -45.2071 -41.335
rradius 12.2721
rwrist 90.3516
rhand -24.8927 -26.5701
rfingers 7.12502
rthumb 1.61519 -1136.54
lclavicle 1.32192e-014 -2.14687e-014
lhumerus -84.0168 55.4622 4.90338
lradius 10.3112
lwrist -80.234
lhand -15.3647 -13.9185
lfingers 7.12502
lthumb 10.813 15.7832
rfemur 3.15753 21.727 28.1084
rtibia 4.03339
rfoot -12.1974 -22.5736
rtoes 3.11623
lfemur 8.55279 -31.5286 -15.7037
ltibia -2.21601
lfoot -9.89707 39.5824
ltoes 0.139702
